<svg width="18" height="18" viewBox="0 0 18 18" fill="none" xmlns="http://www.w3.org/2000/svg">
<g id="arrow-button-right 1" clip-path="url(#clip0_1_117)">
<g id="Group">
<path id="Vector" d="M5.40515 17.8134L14.7584 9.57537C14.8362 9.50074 14.8982 9.41115 14.9405 9.31197C14.9828 9.21278 15.0046 9.10607 15.0046 8.99824C15.0046 8.89041 14.9828 8.7837 14.9405 8.68452C14.8982 8.58533 14.8362 8.49574 14.7584 8.42112L5.40515 0.186866C5.33095 0.121009 5.24427 0.0707382 5.15026 0.0390414C5.05625 0.00734462 4.95683 -0.00513145 4.8579 0.00235456C4.75897 0.00984056 4.66256 0.0371359 4.57439 0.0826186C4.48622 0.128101 4.40809 0.190843 4.34465 0.267116L3.1769 1.65462C3.04646 1.80934 2.98207 2.00914 2.99765 2.21092C3.01322 2.41269 3.10751 2.60025 3.26015 2.73312L10.3499 8.85687C10.3704 8.87447 10.3868 8.89628 10.398 8.92081C10.4093 8.94533 10.4151 8.972 10.4151 8.99899C10.4151 9.02598 10.4093 9.05265 10.398 9.07717C10.3868 9.1017 10.3704 9.12351 10.3499 9.14112L3.2624 15.2671C3.1864 15.3331 3.12417 15.4135 3.07925 15.5036C3.03434 15.5936 3.00763 15.6917 3.00065 15.7921C2.99174 15.892 3.00295 15.9926 3.03361 16.0881C3.06427 16.1835 3.11376 16.2719 3.17915 16.3479L4.34765 17.7361C4.41121 17.8122 4.48939 17.8748 4.57755 17.9202C4.66572 17.9655 4.76208 17.9927 4.86095 18.0002C4.95982 18.0077 5.05918 17.9953 5.15317 17.9637C5.24715 17.9321 5.33386 17.882 5.40815 17.8164L5.40515 17.8134Z" fill="#0530AD"/>
</g>
</g>
<defs>
<clipPath id="clip0_1_117">
<rect width="18" height="18" fill="white"/>
</clipPath>
</defs>
</svg>
