<svg width="419" height="417" viewBox="0 0 419 417" fill="none" xmlns="http://www.w3.org/2000/svg">
<g filter="url(#filter0_d_0_691)">
<path d="M209.779 183H209.769C193.261 183.041 181 195.22 181 211.864C181 220.66 184.146 227.794 189.239 233H230.309C235.408 227.794 238.547 220.66 238.547 211.864C238.547 195.22 226.288 183.041 209.779 183ZM227.449 221.873L209.779 206.157H209.774L192.099 221.873C190.803 219.547 189.919 215.536 189.919 212.323C189.919 202.073 197.914 192.417 209.769 192.417H209.779C221.634 192.417 229.63 202.073 229.63 212.323C229.63 215.536 228.751 219.547 227.449 221.873Z" fill="white"/>
</g>
<path d="M204.191 256L207.903 248.653V248.594H203.594V247.273H209.539V248.624L205.831 256H204.191ZM214.464 247.273V256H212.883V248.811H212.832L210.791 250.115V248.666L212.96 247.273H214.464Z" fill="white"/>
<line x1="210.43" y1="126.5" x2="210.43" y2="138.775" stroke="white" stroke-linecap="round"/>
<line x1="210.43" y1="278.211" x2="210.43" y2="290.486" stroke="white" stroke-linecap="round"/>
<line x1="231.634" y1="129.423" x2="228.457" y2="141.28" stroke="white" stroke-linecap="round"/>
<line x1="192.368" y1="275.965" x2="189.191" y2="287.822" stroke="white" stroke-linecap="round"/>
<line x1="231.634" y1="129.423" x2="228.457" y2="141.28" stroke="white" stroke-linecap="round"/>
<line x1="192.368" y1="275.965" x2="189.191" y2="287.822" stroke="white" stroke-linecap="round"/>
<line x1="251.359" y1="137.735" x2="245.222" y2="148.365" stroke="white" stroke-linecap="round"/>
<line x1="175.504" y1="269.121" x2="169.366" y2="279.751" stroke="white" stroke-linecap="round"/>
<line x1="268.261" y1="150.869" x2="259.582" y2="159.548" stroke="white" stroke-linecap="round"/>
<line x1="160.985" y1="258.145" x2="152.306" y2="266.824" stroke="white" stroke-linecap="round"/>
<line x1="281.188" y1="167.929" x2="270.558" y2="174.067" stroke="white" stroke-linecap="round"/>
<line x1="149.802" y1="243.785" x2="139.172" y2="249.923" stroke="white" stroke-linecap="round"/>
<line x1="289.258" y1="187.755" x2="277.402" y2="190.932" stroke="white" stroke-linecap="round"/>
<line x1="142.28" y1="226.617" x2="130.423" y2="229.794" stroke="white" stroke-linecap="round"/>
<line x1="291.923" y1="208.993" x2="279.648" y2="208.993" stroke="white" stroke-linecap="round"/>
<line x1="139.775" y1="208.59" x2="127.5" y2="208.59" stroke="white" stroke-linecap="round"/>
<line x1="289" y1="230.197" x2="277.143" y2="227.02" stroke="white" stroke-linecap="round"/>
<line x1="142.021" y1="190.528" x2="130.164" y2="187.351" stroke="white" stroke-linecap="round"/>
<line x1="280.688" y1="249.923" x2="270.058" y2="243.785" stroke="white" stroke-linecap="round"/>
<line x1="148.865" y1="173.664" x2="138.235" y2="167.526" stroke="white" stroke-linecap="round"/>
<line x1="267.554" y1="266.824" x2="258.875" y2="258.145" stroke="white" stroke-linecap="round"/>
<line x1="159.841" y1="159.145" x2="151.162" y2="150.466" stroke="white" stroke-linecap="round"/>
<line x1="250.493" y1="279.751" x2="244.356" y2="269.121" stroke="white" stroke-linecap="round"/>
<line x1="174.638" y1="148.255" x2="168.5" y2="137.624" stroke="white" stroke-linecap="round"/>
<line x1="230.668" y1="287.821" x2="227.491" y2="275.965" stroke="white" stroke-linecap="round"/>
<line x1="190.966" y1="140.877" x2="187.789" y2="129.02" stroke="white" stroke-linecap="round"/>
<line x1="220.964" y1="127.244" x2="219.387" y2="139.417" stroke="white" stroke-linecap="round"/>
<line x1="201.465" y1="277.697" x2="199.887" y2="289.87" stroke="white" stroke-linecap="round"/>
<line x1="241.617" y1="132.869" x2="236.943" y2="144.219" stroke="white" stroke-linecap="round"/>
<line x1="183.842" y1="273.148" x2="179.167" y2="284.498" stroke="white" stroke-linecap="round"/>
<line x1="241.617" y1="132.869" x2="236.943" y2="144.219" stroke="white" stroke-linecap="round"/>
<line x1="183.842" y1="273.148" x2="179.167" y2="284.498" stroke="white" stroke-linecap="round"/>
<line x1="260.11" y1="143.647" x2="252.658" y2="153.4" stroke="white" stroke-linecap="round"/>
<line x1="167.997" y1="264.193" x2="160.544" y2="273.946" stroke="white" stroke-linecap="round"/>
<line x1="275.184" y1="158.844" x2="265.461" y2="166.336" stroke="white" stroke-linecap="round"/>
<line x1="155.009" y1="251.442" x2="145.286" y2="258.934" stroke="white" stroke-linecap="round"/>
<line x1="285.811" y1="177.425" x2="274.48" y2="182.145" stroke="white" stroke-linecap="round"/>
<line x1="145.765" y1="235.764" x2="134.434" y2="240.484" stroke="white" stroke-linecap="round"/>
<line x1="291.266" y1="198.123" x2="279.1" y2="199.75" stroke="white" stroke-linecap="round"/>
<line x1="140.456" y1="217.824" x2="128.289" y2="219.451" stroke="white" stroke-linecap="round"/>
<line x1="291.179" y1="219.528" x2="279.006" y2="217.95" stroke="white" stroke-linecap="round"/>
<line x1="140.289" y1="199.625" x2="128.116" y2="198.047" stroke="white" stroke-linecap="round"/>
<line x1="285.554" y1="240.18" x2="274.204" y2="235.506" stroke="white" stroke-linecap="round"/>
<line x1="144.838" y1="182.002" x2="133.488" y2="177.327" stroke="white" stroke-linecap="round"/>
<line x1="274.776" y1="258.674" x2="265.023" y2="251.221" stroke="white" stroke-linecap="round"/>
<line x1="153.793" y1="166.157" x2="144.04" y2="158.704" stroke="white" stroke-linecap="round"/>
<line x1="259.579" y1="273.747" x2="252.087" y2="264.024" stroke="white" stroke-linecap="round"/>
<line x1="166.981" y1="153.462" x2="159.489" y2="143.739" stroke="white" stroke-linecap="round"/>
<line x1="240.998" y1="284.374" x2="236.278" y2="273.043" stroke="white" stroke-linecap="round"/>
<line x1="182.659" y1="144.328" x2="177.939" y2="132.997" stroke="white" stroke-linecap="round"/>
<line x1="220.3" y1="289.829" x2="218.673" y2="277.663" stroke="white" stroke-linecap="round"/>
<line x1="200.195" y1="139.456" x2="198.569" y2="127.289" stroke="white" stroke-linecap="round"/>
<line x1="210.635" y1="71.1277" x2="210.635" y2="92.3129" stroke="white" stroke-linecap="round"/>
<line x1="210.635" y1="324.673" x2="210.635" y2="345.858" stroke="white" stroke-linecap="round"/>
<line x1="246.17" y1="75.9377" x2="240.687" y2="96.401" stroke="white" stroke-linecap="round"/>
<line x1="180.548" y1="320.844" x2="175.065" y2="341.307" stroke="white" stroke-linecap="round"/>
<line x1="246.17" y1="75.9377" x2="240.687" y2="96.401" stroke="white" stroke-linecap="round"/>
<line x1="180.548" y1="320.844" x2="175.065" y2="341.307" stroke="white" stroke-linecap="round"/>
<line x1="279.25" y1="89.7812" x2="268.658" y2="108.128" stroke="white" stroke-linecap="round"/>
<line x1="152.478" y1="309.358" x2="141.885" y2="327.705" stroke="white" stroke-linecap="round"/>
<line x1="307.62" y1="111.715" x2="292.64" y2="126.695" stroke="white" stroke-linecap="round"/>
<line x1="128.336" y1="290.998" x2="113.356" y2="305.978" stroke="white" stroke-linecap="round"/>
<line x1="329.347" y1="140.243" x2="311" y2="150.836" stroke="white" stroke-linecap="round"/>
<line x1="109.77" y1="267.016" x2="91.4227" y2="277.609" stroke="white" stroke-linecap="round"/>
<line x1="342.949" y1="173.423" x2="322.485" y2="178.906" stroke="white" stroke-linecap="round"/>
<line x1="97.3126" y1="238.372" x2="76.8493" y2="243.855" stroke="white" stroke-linecap="round"/>
<line x1="347.5" y1="208.993" x2="326.315" y2="208.993" stroke="white" stroke-linecap="round"/>
<line x1="93.2245" y1="208.319" x2="72.0393" y2="208.319" stroke="white" stroke-linecap="round"/>
<line x1="342.69" y1="244.529" x2="322.227" y2="239.046" stroke="white" stroke-linecap="round"/>
<line x1="97.0538" y1="178.233" x2="76.5905" y2="172.749" stroke="white" stroke-linecap="round"/>
<line x1="328.847" y1="277.609" x2="310.5" y2="267.016" stroke="white" stroke-linecap="round"/>
<line x1="108.54" y1="150.162" x2="90.1927" y2="139.57" stroke="white" stroke-linecap="round"/>
<line x1="306.913" y1="305.979" x2="291.933" y2="290.998" stroke="white" stroke-linecap="round"/>
<line x1="126.899" y1="126.021" x2="111.919" y2="111.041" stroke="white" stroke-linecap="round"/>
<line x1="278.384" y1="327.705" x2="267.792" y2="309.358" stroke="white" stroke-linecap="round"/>
<line x1="151.611" y1="107.943" x2="141.019" y2="89.5965" stroke="white" stroke-linecap="round"/>
<line x1="245.204" y1="341.307" x2="239.721" y2="320.844" stroke="white" stroke-linecap="round"/>
<line x1="178.852" y1="95.7273" x2="173.369" y2="75.2639" stroke="white" stroke-linecap="round"/>
<line x1="228.286" y1="72.3312" x2="225.563" y2="93.3407" stroke="white" stroke-linecap="round"/>
<line x1="195.698" y1="323.774" x2="192.975" y2="344.783" stroke="white" stroke-linecap="round"/>
<line x1="262.909" y1="81.6688" x2="254.841" y2="101.258" stroke="white" stroke-linecap="round"/>
<line x1="166.353" y1="316.109" x2="158.285" y2="335.698" stroke="white" stroke-linecap="round"/>
<line x1="262.909" y1="81.6688" x2="254.841" y2="101.258" stroke="white" stroke-linecap="round"/>
<line x1="166.353" y1="316.109" x2="158.285" y2="335.698" stroke="white" stroke-linecap="round"/>
<line x1="293.935" y1="99.6494" x2="281.072" y2="116.483" stroke="white" stroke-linecap="round"/>
<line x1="139.991" y1="301.11" x2="127.128" y2="317.944" stroke="white" stroke-linecap="round"/>
<line x1="319.251" y1="125.047" x2="302.469" y2="137.978" stroke="white" stroke-linecap="round"/>
<line x1="118.41" y1="279.8" x2="101.629" y2="292.731" stroke="white" stroke-linecap="round"/>
<line x1="337.13" y1="156.132" x2="317.574" y2="164.279" stroke="white" stroke-linecap="round"/>
<line x1="103.08" y1="253.63" x2="83.5239" y2="261.777" stroke="white" stroke-linecap="round"/>
<line x1="346.355" y1="190.785" x2="325.356" y2="193.592" stroke="white" stroke-linecap="round"/>
<line x1="94.3155" y1="223.711" x2="73.3171" y2="226.518" stroke="white" stroke-linecap="round"/>
<line x1="346.296" y1="226.645" x2="325.287" y2="223.922" stroke="white" stroke-linecap="round"/>
<line x1="94.124" y1="193.382" x2="73.1145" y2="190.659" stroke="white" stroke-linecap="round"/>
<line x1="336.959" y1="261.267" x2="317.37" y2="253.2" stroke="white" stroke-linecap="round"/>
<line x1="101.789" y1="164.037" x2="82.1998" y2="155.969" stroke="white" stroke-linecap="round"/>
<line x1="318.978" y1="292.294" x2="302.145" y2="279.431" stroke="white" stroke-linecap="round"/>
<line x1="116.787" y1="137.676" x2="99.9539" y2="124.813" stroke="white" stroke-linecap="round"/>
<line x1="293.58" y1="317.609" x2="280.65" y2="300.828" stroke="white" stroke-linecap="round"/>
<line x1="138.827" y1="116.584" x2="125.897" y2="99.8026" stroke="white" stroke-linecap="round"/>
<line x1="262.496" y1="335.488" x2="254.349" y2="315.932" stroke="white" stroke-linecap="round"/>
<line x1="164.997" y1="101.438" x2="156.851" y2="81.8821" stroke="white" stroke-linecap="round"/>
<line x1="227.843" y1="344.713" x2="225.035" y2="323.715" stroke="white" stroke-linecap="round"/>
<line x1="194.243" y1="93.4037" x2="191.436" y2="72.4053" stroke="white" stroke-linecap="round"/>
<line x1="210.822" y1="0.5" x2="210.822" y2="33.0506" stroke="white" stroke-linecap="round"/>
<line x1="210.822" y1="383.936" x2="210.822" y2="416.486" stroke="white" stroke-linecap="round"/>
<line x1="264.637" y1="7.71662" x2="256.212" y2="39.1581" stroke="white" stroke-linecap="round"/>
<line x1="165.397" y1="378.087" x2="156.972" y2="409.528" stroke="white" stroke-linecap="round"/>
<line x1="264.637" y1="7.71662" x2="256.212" y2="39.1581" stroke="white" stroke-linecap="round"/>
<line x1="165.397" y1="378.087" x2="156.972" y2="409.528" stroke="white" stroke-linecap="round"/>
<line x1="314.751" y1="28.6159" x2="298.476" y2="56.8055" stroke="white" stroke-linecap="round"/>
<line x1="123.033" y1="360.681" x2="106.758" y2="388.87" stroke="white" stroke-linecap="round"/>
<line x1="357.748" y1="61.7733" x2="334.732" y2="84.79" stroke="white" stroke-linecap="round"/>
<line x1="86.6186" y1="332.903" x2="63.6018" y2="355.92" stroke="white" stroke-linecap="round"/>
<line x1="390.699" y1="104.93" x2="362.509" y2="121.205" stroke="white" stroke-linecap="round"/>
<line x1="58.634" y1="296.647" x2="30.4444" y2="312.923" stroke="white" stroke-linecap="round"/>
<line x1="411.357" y1="155.143" x2="379.915" y2="163.568" stroke="white" stroke-linecap="round"/>
<line x1="39.8826" y1="253.365" x2="8.44112" y2="261.79" stroke="white" stroke-linecap="round"/>
<line x1="418.315" y1="208.993" x2="385.764" y2="208.993" stroke="white" stroke-linecap="round"/>
<line x1="33.7752" y1="207.974" x2="1.22461" y2="207.974" stroke="white" stroke-linecap="round"/>
<line x1="411.098" y1="262.809" x2="379.657" y2="254.384" stroke="white" stroke-linecap="round"/>
<line x1="39.6238" y1="162.549" x2="8.18231" y2="154.125" stroke="white" stroke-linecap="round"/>
<line x1="390.199" y1="312.923" x2="362.009" y2="296.647" stroke="white" stroke-linecap="round"/>
<line x1="57.0299" y1="120.186" x2="28.8403" y2="103.911" stroke="white" stroke-linecap="round"/>
<line x1="357.041" y1="355.92" x2="334.025" y2="332.903" stroke="white" stroke-linecap="round"/>
<line x1="84.8074" y1="83.7711" x2="61.7907" y2="60.7544" stroke="white" stroke-linecap="round"/>
<line x1="313.885" y1="388.87" x2="297.61" y2="360.681" stroke="white" stroke-linecap="round"/>
<line x1="122.167" y1="56.5262" x2="105.892" y2="28.3366" stroke="white" stroke-linecap="round"/>
<line x1="263.671" y1="409.528" x2="255.246" y2="378.087" stroke="white" stroke-linecap="round"/>
<line x1="163.327" y1="38.1391" x2="154.902" y2="6.69766" stroke="white" stroke-linecap="round"/>
<line x1="237.551" y1="2.28937" x2="233.368" y2="34.57" stroke="white" stroke-linecap="round"/>
<line x1="188.267" y1="382.544" x2="184.084" y2="414.825" stroke="white" stroke-linecap="round"/>
<line x1="289.993" y1="16.3632" x2="277.597" y2="46.461" stroke="white" stroke-linecap="round"/>
<line x1="143.971" y1="370.906" x2="131.575" y2="401.003" stroke="white" stroke-linecap="round"/>
<line x1="289.993" y1="16.3632" x2="277.597" y2="46.461" stroke="white" stroke-linecap="round"/>
<line x1="143.971" y1="370.906" x2="131.575" y2="401.003" stroke="white" stroke-linecap="round"/>
<line x1="337.005" y1="43.5303" x2="317.241" y2="69.3943" stroke="white" stroke-linecap="round"/>
<line x1="104.196" y1="348.199" x2="84.4328" y2="374.063" stroke="white" stroke-linecap="round"/>
<line x1="375.384" y1="81.9394" x2="349.6" y2="101.807" stroke="white" stroke-linecap="round"/>
<line x1="71.654" y1="315.971" x2="45.8697" y2="335.839" stroke="white" stroke-linecap="round"/>
<line x1="402.514" y1="128.973" x2="372.466" y2="141.49" stroke="white" stroke-linecap="round"/>
<line x1="48.5616" y1="276.419" x2="18.5139" y2="288.936" stroke="white" stroke-linecap="round"/>
<line x1="416.547" y1="181.425" x2="384.283" y2="185.739" stroke="white" stroke-linecap="round"/>
<line x1="35.3888" y1="231.219" x2="3.12533" y2="235.533" stroke="white" stroke-linecap="round"/>
<line x1="416.525" y1="235.723" x2="384.245" y2="231.539" stroke="white" stroke-linecap="round"/>
<line x1="35.1663" y1="185.42" x2="2.88572" y2="181.236" stroke="white" stroke-linecap="round"/>
<line x1="402.451" y1="288.164" x2="372.354" y2="275.768" stroke="white" stroke-linecap="round"/>
<line x1="46.805" y1="141.123" x2="16.7071" y2="128.727" stroke="white" stroke-linecap="round"/>
<line x1="375.284" y1="335.176" x2="349.42" y2="315.413" stroke="white" stroke-linecap="round"/>
<line x1="69.5118" y1="101.349" x2="43.6479" y2="81.5852" stroke="white" stroke-linecap="round"/>
<line x1="336.875" y1="373.555" x2="317.008" y2="347.771" stroke="white" stroke-linecap="round"/>
<line x1="102.843" y1="69.5462" x2="82.976" y2="43.762" stroke="white" stroke-linecap="round"/>
<line x1="289.842" y1="400.685" x2="277.325" y2="370.637" stroke="white" stroke-linecap="round"/>
<line x1="142.395" y1="46.7327" x2="129.878" y2="16.6849" stroke="white" stroke-linecap="round"/>
<line x1="237.389" y1="414.718" x2="233.076" y2="382.454" stroke="white" stroke-linecap="round"/>
<line x1="186.577" y1="34.6641" x2="182.263" y2="2.40053" stroke="white" stroke-linecap="round"/>
<defs>
<filter id="filter0_d_0_691" x="161" y="163" width="97.5472" height="90" filterUnits="userSpaceOnUse" color-interpolation-filters="sRGB">
<feFlood flood-opacity="0" result="BackgroundImageFix"/>
<feColorMatrix in="SourceAlpha" type="matrix" values="0 0 0 0 0 0 0 0 0 0 0 0 0 0 0 0 0 0 127 0" result="hardAlpha"/>
<feOffset/>
<feGaussianBlur stdDeviation="10"/>
<feColorMatrix type="matrix" values="0 0 0 0 1 0 0 0 0 1 0 0 0 0 1 0 0 0 0.25 0"/>
<feBlend mode="normal" in2="BackgroundImageFix" result="effect1_dropShadow_0_691"/>
<feBlend mode="normal" in="SourceGraphic" in2="effect1_dropShadow_0_691" result="shape"/>
</filter>
</defs>
</svg>
