<svg width="24" height="24" viewBox="0 0 24 24" fill="none" xmlns="http://www.w3.org/2000/svg">
<g clip-path="url(#clip0_0_554)">
<path d="M12 0.499984C8.9196 0.472243 5.95393 1.66736 3.75346 3.82321C1.55299 5.97907 0.297381 8.91964 0.262024 12C0.297381 15.0803 1.55299 18.0209 3.75346 20.1768C5.95393 22.3326 8.9196 23.5277 12 23.5C14.3579 23.508 16.6645 22.8116 18.624 21.5C18.7603 21.4085 18.8773 21.2911 18.9682 21.1544C19.0592 21.0178 19.1223 20.8645 19.154 20.7035C19.1857 20.5424 19.1854 20.3767 19.1531 20.2157C19.1207 20.0548 19.057 19.9018 18.9655 19.7655C18.8741 19.6292 18.7566 19.5122 18.62 19.4213C18.4833 19.3303 18.3301 19.2672 18.169 19.2355C18.0079 19.2038 17.8422 19.2041 17.6813 19.2365C17.5203 19.2688 17.3673 19.3325 17.231 19.424C15.6834 20.4589 13.8618 21.0078 12 21C9.58247 21.0283 7.25234 20.0968 5.52059 18.4096C3.78884 16.7225 2.79681 14.4175 2.76202 12C2.79681 9.58251 3.78884 7.27749 5.52059 5.59035C7.25234 3.90321 9.58247 2.97167 12 2.99998C14.4176 2.97167 16.7477 3.90321 18.4795 5.59035C20.2112 7.27749 21.2032 9.58251 21.238 12V12.891C21.2218 13.3952 21.0101 13.8734 20.6477 14.2244C20.2853 14.5754 19.8005 14.7717 19.296 14.7717C18.7915 14.7717 18.3068 14.5754 17.9443 14.2244C17.5819 13.8734 17.3702 13.3952 17.354 12.891V12C17.3727 10.937 17.0745 9.89255 16.4975 8.99963C15.9205 8.1067 15.0908 7.40573 14.114 6.986C13.1373 6.56627 12.0577 6.44678 11.0128 6.64275C9.96785 6.83871 9.00491 7.34127 8.24661 8.0864C7.48831 8.83153 6.96896 9.78551 6.75471 10.8268C6.54047 11.8681 6.64103 12.9497 7.04358 13.9336C7.44613 14.9176 8.13245 15.7595 9.01513 16.352C9.89781 16.9446 10.9369 17.261 12 17.261C12.7202 17.2611 13.4331 17.1166 14.0964 16.8359C14.7596 16.5552 15.3597 16.1441 15.861 15.627C16.4362 16.3324 17.2145 16.844 18.0902 17.0922C18.966 17.3405 19.8969 17.3134 20.7567 17.0147C21.6166 16.7161 22.3638 16.1602 22.8971 15.4226C23.4304 14.6849 23.724 13.8011 23.738 12.891V12C23.7027 8.91964 22.4471 5.97907 20.2466 3.82321C18.0461 1.66736 15.0804 0.472243 12 0.499984ZM12 14.761C11.4577 14.7431 10.9326 14.566 10.4904 14.2516C10.0481 13.9373 9.70814 13.4996 9.51296 12.9933C9.31778 12.487 9.276 11.9345 9.39283 11.4046C9.50965 10.8747 9.77992 10.3909 10.1699 10.0137C10.5599 9.63638 11.0523 9.38228 11.5858 9.28306C12.1193 9.18385 12.6702 9.24391 13.1697 9.45574C13.6693 9.66758 14.0954 10.0218 14.3949 10.4743C14.6944 10.9267 14.8541 11.4574 14.854 12C14.8406 12.7442 14.5327 13.4528 13.9977 13.9703C13.4627 14.4879 12.7443 14.7722 12 14.761Z" fill="black"/>
</g>
<defs>
<clipPath id="clip0_0_554">
<rect width="24" height="24" fill="white"/>
</clipPath>
</defs>
</svg>
